<?xml version="1.0" encoding="UTF-8"?>
<svg width="400px" height="400px" viewBox="0 0 400 400" version="1.1" xmlns="http://www.w3.org/2000/svg" xmlns:xlink="http://www.w3.org/1999/xlink">
    <!-- Generator: Sketch 63.1 (92452) - https://sketch.com -->
    <title>favicon</title>
    <desc>Created with Sketch.</desc>
    <defs>
        <linearGradient x1="50.0000362%" y1="98.98%" x2="50.0000362%" y2="29.1900014%" id="linearGradient-1">
            <stop stop-color="#DCDDE5" offset="0%"></stop>
            <stop stop-color="#EEEFF3" offset="41.06%"></stop>
            <stop stop-color="#FFFFFF" offset="100%"></stop>
        </linearGradient>
        <linearGradient x1="49.9999439%" y1="86.0400004%" x2="49.9999439%" y2="42.6215771%" id="linearGradient-2">
            <stop stop-color="#FFFFFF" offset="0%"></stop>
            <stop stop-color="#EDECED" offset="100%"></stop>
        </linearGradient>
        <linearGradient x1="49.9999439%" y1="100%" x2="49.9999439%" y2="0%" id="linearGradient-3">
            <stop stop-color="#FFFFFF" offset="16.75%"></stop>
            <stop stop-color="#F5F5F6" offset="45.23%"></stop>
            <stop stop-color="#F1F1F2" offset="78.68%"></stop>
        </linearGradient>
    </defs>
    <g id="favicon" stroke="none" stroke-width="1" fill="none" fill-rule="evenodd">
        <rect id="background" fill="#4D7ABA" x="0" y="0" width="400" height="400" rx="80"></rect>
        <g id="logo" transform="translate(35.000000, 69.000000)" fill-rule="nonzero">
            <g id="Group" fill="url(#linearGradient-1)">
                <path d="M274.634404,100.994673 C271.909928,44.7646909 223.908953,0 165.105668,0 C106.302383,0 58.3133574,44.7646909 55.5888809,100.994673 C41.2495307,102.818155 28.4038628,109.396991 18.6770036,119.098391 C7.13382671,130.611355 0,146.510209 0,164.077609 C0,199.200491 28.5472563,227.684945 63.7742599,227.684945 L266.449025,227.684945 C284.062527,227.684945 300.003105,220.569791 311.546282,209.056827 C323.089458,197.543864 330.223285,181.645009 330.223285,164.077609 C330.223285,131.707827 305.977834,104.999182 274.634404,100.994673 Z" id="Path"></path>
            </g>
            <g id="Clipped" transform="translate(54.000000, 70.000000)" fill="#7F7F7F" opacity="0.1">
                <g id="Group" transform="translate(0.814351, 0.307181)">
                    <g id="Path">
                        <path d="M218.580854,6.76842287 L114.636104,60.7226915 L5.84237135,0.0447460106 C3.50470426,4.86082979 1.54307584,9.87709309 0.0173648426,15.0582101 L110.536804,74.8059096 C111.161938,75.135617 111.824197,75.3946729 112.49963,75.5595266 C112.862495,75.6537287 113.237336,75.7126051 113.612177,75.7597061 C113.649302,75.7597061 113.674451,75.7597061 113.712773,75.7714814 L113.775047,75.7714814 C113.899595,75.7832566 114.025341,75.7950319 114.137913,75.8068072 C114.28761,75.8185824 114.438504,75.8185824 114.575028,75.8185824 C114.625326,75.8185824 114.675624,75.8068072 114.724725,75.8068072 C114.874422,75.8068072 115.024118,75.7832566 115.175013,75.7714814 C115.425306,75.7597061 115.662426,75.7479309 115.912719,75.7008298 C116.087565,75.6772793 116.275585,75.6419535 116.450431,75.6066277 C116.662402,75.5595266 116.862397,75.5006503 117.062392,75.4417739 C117.549805,75.3004707 118.025242,75.1002912 118.487506,74.8647859 L222.91967,20.6396862 C221.819098,15.8824787 220.368834,11.2547992 218.580854,6.76842287 Z"></path>
                    </g>
                </g>
            </g>
            <g id="Group" transform="translate(45.000000, 107.000000)" fill="#C4C7CF">
                <polygon id="Path" points="0.147740688 115.613793 64.8809836 0.60321691 66.0028519 1.23027638 0.536911279 115.83076"></polygon>
                <polygon id="Path" points="242.267101 115.83076 177.853363 3.01131603 178.91157 2.42002041 242.657473 115.613793"></polygon>
            </g>
            <g id="Group" transform="translate(60.000000, 0.000000)">
                <path d="M211.924201,84.655857 L112.971128,140.007301 C112.532916,140.247698 112.08286,140.452036 111.620961,140.596274 C111.431464,140.656373 111.241966,140.716473 111.040626,140.764552 C110.874816,140.800612 110.697162,140.836671 110.531352,140.860711 C110.526615,140.861913 110.523061,140.860711 110.518324,140.861913 C110.148804,140.924416 109.775732,140.96889 109.406212,140.96889 C109.358838,140.96889 109.311464,140.98091 109.264089,140.98091 C109.13381,140.98091 108.991687,140.98091 108.849564,140.96889 C108.742972,140.95687 108.624536,140.94485 108.506101,140.93283 L108.446883,140.93283 C108.411352,140.92081 108.387665,140.92081 108.352134,140.92081 C107.996827,140.872731 107.64152,140.812632 107.298056,140.716473 C106.658503,140.548195 106.030793,140.283758 105.438615,139.947202 L0.71772067,78.9584445 C2.16263687,73.6697072 4.02207821,68.5492478 6.23682682,63.6331261 C23.1257654,26.1431903 61.2739218,0 105.616268,0 C152.623419,0 192.666547,29.3765319 207.81448,70.4964647 C209.508112,75.0760305 210.881966,79.7998345 211.924201,84.655857 Z" id="Path" fill="url(#linearGradient-2)"></path>
                <path d="M207.81448,70.4964647 L109.323307,125.571452 L6.23682682,63.6331261 C4.02207821,68.5492478 2.16263687,73.6697072 0.71772067,78.9584445 L105.438615,139.947202 C106.030793,140.283758 106.658503,140.548195 107.298056,140.716473 C107.64152,140.812632 107.996827,140.872731 108.352134,140.92081 C108.387665,140.92081 108.411352,140.92081 108.446883,140.93283 L108.506101,140.93283 C108.624536,140.94485 108.742972,140.95687 108.849564,140.96889 C108.991687,140.98091 109.13381,140.98091 109.264089,140.98091 C109.311464,140.98091 109.358838,140.96889 109.406212,140.96889 C109.548335,140.96889 109.690458,140.94485 109.832581,140.93283 C110.069453,140.92081 110.29448,140.90879 110.531352,140.860711 C110.697162,140.836671 110.874816,140.800612 111.040626,140.764552 C111.241966,140.716473 111.431464,140.656373 111.620961,140.596274 C112.08286,140.452036 112.532916,140.247698 112.971128,140.007301 L211.924201,84.655857 C210.881966,79.7998345 209.508112,75.0760305 207.81448,70.4964647 Z" id="Path" fill="url(#linearGradient-3)"></path>
            </g>
        </g>
    </g>
</svg>